<svg width="606" height="491" viewBox="0 0 606 491" fill="none" xmlns="http://www.w3.org/2000/svg">
<path d="M452 310.5C452 408.68 351.716 489 227 489C102.284 489 2 408.68 2 310.5C2 212.32 102.284 132 227 132C351.716 132 452 212.32 452 310.5Z" fill="#7DE77B" fill-opacity="0.33" stroke="black" stroke-width="4"/>
<path d="M307 139C307 151.252 298.502 162.71 283.972 171.215C269.49 179.692 249.352 185 227 185C204.648 185 184.51 179.692 170.028 171.215C155.498 162.71 147 151.252 147 139C147 126.748 155.498 115.29 170.028 106.785C184.51 98.3076 204.648 93 227 93C249.352 93 269.49 98.3076 283.972 106.785C298.502 115.29 307 126.748 307 139Z" fill="#7DE77B" stroke="black" stroke-width="4"/>
<path d="M210.671 142.174H208.124L205.007 131.963H207.187L208.913 138.111L209.468 140.127L210.046 137.994L211.757 131.963H213.804L210.671 142.174ZM219.562 132.065C219.562 132.236 219.53 132.398 219.468 132.549C219.405 132.7 219.317 132.833 219.202 132.947C219.093 133.057 218.963 133.145 218.812 133.213C218.661 133.275 218.497 133.307 218.319 133.307C218.142 133.307 217.976 133.275 217.819 133.213C217.668 133.145 217.536 133.057 217.421 132.947C217.312 132.833 217.226 132.7 217.163 132.549C217.101 132.398 217.069 132.236 217.069 132.065C217.069 131.893 217.101 131.731 217.163 131.58C217.226 131.429 217.312 131.296 217.421 131.182C217.536 131.067 217.668 130.979 217.819 130.916C217.976 130.848 218.142 130.815 218.319 130.815C218.497 130.815 218.661 130.848 218.812 130.916C218.963 130.979 219.093 131.067 219.202 131.182C219.317 131.296 219.405 131.429 219.468 131.58C219.53 131.731 219.562 131.893 219.562 132.065ZM217.452 135.721H215.21V134.236H219.405V140.69H221.694V142.174H214.937V140.69H217.452V135.721ZM228.421 142.174V137.002C228.421 136.132 228.098 135.697 227.452 135.697C227.129 135.697 226.819 135.828 226.523 136.088C226.231 136.348 225.921 136.703 225.593 137.15V142.174H223.687V134.236H225.335L225.382 135.408C225.543 135.205 225.71 135.02 225.882 134.854C226.059 134.687 226.249 134.546 226.452 134.432C226.655 134.312 226.874 134.221 227.109 134.158C227.343 134.096 227.606 134.065 227.898 134.065C228.304 134.065 228.658 134.132 228.96 134.268C229.262 134.398 229.515 134.585 229.718 134.83C229.921 135.07 230.072 135.361 230.171 135.705C230.275 136.044 230.327 136.424 230.327 136.846V142.174H228.421ZM237.257 141.307C236.981 141.994 236.692 142.596 236.39 143.111C236.093 143.632 235.765 144.065 235.405 144.408C235.046 144.757 234.645 145.018 234.202 145.19C233.765 145.367 233.273 145.455 232.726 145.455C232.596 145.455 232.452 145.447 232.296 145.432C232.145 145.421 231.989 145.403 231.827 145.377V143.76C231.89 143.77 231.96 143.781 232.038 143.791C232.122 143.807 232.207 143.817 232.296 143.822C232.385 143.833 232.473 143.841 232.562 143.846C232.655 143.851 232.741 143.854 232.819 143.854C233.038 143.854 233.241 143.812 233.429 143.729C233.616 143.645 233.788 143.528 233.944 143.377C234.106 143.231 234.252 143.054 234.382 142.846C234.512 142.643 234.627 142.419 234.726 142.174L231.577 134.236H233.702L235.351 138.736L235.843 140.19L236.327 138.799L237.991 134.236H240.038L237.257 141.307ZM243.843 132.619H241.601V131.135H245.796V140.69H248.085V142.174H241.327V140.69H243.843V132.619Z" fill="black"/>
<path d="M181 247C181 254.286 175.966 261.244 167.048 266.489C158.177 271.708 145.79 275 132 275C118.21 275 105.823 271.708 96.9516 266.489C88.0338 261.244 83 254.286 83 247C83 239.714 88.0338 232.756 96.9516 227.511C105.823 222.292 118.21 219 132 219C145.79 219 158.177 222.292 167.048 227.511C175.966 232.756 181 239.714 181 247Z" fill="#7DE77B" stroke="black" stroke-width="4"/>
<path d="M116.648 249.609L116.085 247.593H112.523L111.945 249.609H110.038L113.062 239.398H115.749L118.773 249.609H116.648ZM114.328 241.273L112.984 246.023H115.656L114.328 241.273ZM122.453 240.054H120.21V238.57H124.406V248.124H126.695V249.609H119.937V248.124H122.453V240.054ZM135.828 245.499C135.828 246.228 135.723 246.859 135.515 247.39C135.312 247.921 135.025 248.364 134.656 248.718C134.291 249.067 133.859 249.327 133.359 249.499C132.859 249.666 132.314 249.749 131.726 249.749C131.148 249.749 130.609 249.705 130.109 249.617C129.614 249.533 129.14 249.419 128.687 249.273V238.57H130.593V241.163L130.515 242.726C130.801 242.356 131.135 242.059 131.515 241.835C131.9 241.611 132.361 241.499 132.898 241.499C133.367 241.499 133.783 241.593 134.148 241.781C134.512 241.968 134.817 242.236 135.062 242.585C135.312 242.929 135.502 243.348 135.632 243.843C135.762 244.333 135.828 244.885 135.828 245.499ZM133.828 245.577C133.828 245.14 133.796 244.768 133.734 244.46C133.671 244.153 133.58 243.9 133.46 243.702C133.346 243.505 133.203 243.361 133.031 243.273C132.864 243.179 132.671 243.132 132.453 243.132C132.13 243.132 131.82 243.262 131.523 243.523C131.231 243.783 130.921 244.137 130.593 244.585V248.054C130.744 248.111 130.929 248.158 131.148 248.195C131.372 248.231 131.598 248.249 131.828 248.249C132.13 248.249 132.403 248.187 132.648 248.062C132.898 247.937 133.109 247.76 133.281 247.531C133.458 247.301 133.593 247.023 133.687 246.695C133.781 246.361 133.828 245.989 133.828 245.577ZM139.374 241.671V246.843C139.374 247.275 139.455 247.603 139.617 247.827C139.778 248.046 140.023 248.156 140.351 248.156C140.669 248.156 140.973 248.025 141.265 247.765C141.562 247.499 141.874 247.143 142.203 246.695V241.671H144.109V249.609H142.46L142.413 248.437C142.247 248.64 142.078 248.825 141.906 248.992C141.734 249.158 141.546 249.301 141.343 249.421C141.145 249.536 140.926 249.624 140.687 249.687C140.453 249.755 140.192 249.788 139.906 249.788C139.499 249.788 139.143 249.723 138.835 249.593C138.533 249.458 138.281 249.268 138.078 249.023C137.874 248.778 137.721 248.486 137.617 248.148C137.518 247.804 137.468 247.421 137.468 246.999V241.671H139.374ZM151.882 249.609V244.202C151.882 244.005 151.877 243.833 151.867 243.687C151.856 243.536 151.835 243.411 151.804 243.312C151.773 243.213 151.726 243.14 151.663 243.093C151.606 243.041 151.525 243.015 151.421 243.015C151.26 243.015 151.101 243.124 150.945 243.343C150.788 243.562 150.611 243.934 150.413 244.46V249.609H148.781V244.202C148.781 244.005 148.775 243.833 148.765 243.687C148.755 243.536 148.734 243.411 148.703 243.312C148.671 243.213 148.624 243.14 148.562 243.093C148.499 243.041 148.416 243.015 148.312 243.015C148.176 243.015 148.025 243.124 147.859 243.343C147.692 243.562 147.507 243.934 147.304 244.46V249.609H145.656V241.671H147.07L147.101 242.827C147.216 242.593 147.33 242.393 147.445 242.226C147.559 242.059 147.682 241.924 147.812 241.82C147.942 241.71 148.08 241.632 148.226 241.585C148.377 241.538 148.546 241.515 148.734 241.515C149.176 241.515 149.512 241.632 149.742 241.867C149.976 242.096 150.109 242.416 150.14 242.827C150.265 242.593 150.387 242.393 150.507 242.226C150.632 242.059 150.76 241.924 150.89 241.82C151.025 241.71 151.169 241.632 151.32 241.585C151.476 241.538 151.648 241.515 151.835 241.515C152.413 241.515 152.841 241.718 153.117 242.124C153.393 242.525 153.531 243.122 153.531 243.913V249.609H151.882Z" fill="black"/>
<path d="M380 250.5C380 258.454 374.378 266.039 364.454 271.747C354.584 277.425 340.816 281 325.5 281C310.184 281 296.416 277.425 286.546 271.747C276.622 266.039 271 258.454 271 250.5C271 242.546 276.622 234.961 286.546 229.253C296.416 223.575 310.184 220 325.5 220C340.816 220 354.584 223.575 364.454 229.253C374.378 234.961 380 242.546 380 250.5Z" fill="#7DE77B" stroke="black" stroke-width="4"/>
<path d="M295.696 245.217V253.826H293.727V245.217H290.93V243.615H298.493V245.217H295.696ZM305.305 248.975C305.316 248.678 305.3 248.425 305.258 248.217C305.222 248.008 305.159 247.836 305.071 247.701C304.987 247.566 304.883 247.467 304.758 247.404C304.633 247.342 304.49 247.31 304.329 247.31C304.047 247.31 303.756 247.428 303.454 247.662C303.157 247.891 302.829 248.271 302.469 248.803V253.826H300.516V245.889H302.243L302.313 247.045C302.443 246.842 302.589 246.659 302.75 246.498C302.917 246.336 303.099 246.198 303.297 246.084C303.5 245.964 303.724 245.873 303.969 245.81C304.214 245.748 304.482 245.717 304.774 245.717C305.175 245.717 305.529 245.787 305.836 245.928C306.149 246.063 306.409 246.266 306.618 246.537C306.831 246.808 306.987 247.149 307.086 247.56C307.191 247.967 307.235 248.438 307.219 248.975H305.305ZM313.969 253.826L313.922 252.787C313.756 252.964 313.581 253.128 313.399 253.279C313.217 253.425 313.016 253.553 312.797 253.662C312.579 253.771 312.339 253.855 312.079 253.912C311.823 253.975 311.542 254.006 311.235 254.006C310.829 254.006 310.472 253.946 310.165 253.826C309.857 253.706 309.599 253.54 309.391 253.326C309.183 253.113 309.024 252.855 308.915 252.553C308.81 252.251 308.758 251.917 308.758 251.553C308.758 251.178 308.836 250.831 308.993 250.514C309.154 250.196 309.396 249.922 309.719 249.693C310.047 249.464 310.454 249.284 310.938 249.154C311.428 249.024 312 248.959 312.657 248.959H313.696V248.482C313.696 248.279 313.667 248.097 313.61 247.935C313.553 247.769 313.459 247.628 313.329 247.514C313.204 247.399 313.04 247.31 312.836 247.248C312.633 247.185 312.383 247.154 312.086 247.154C311.618 247.154 311.154 247.209 310.696 247.318C310.243 247.422 309.803 247.571 309.375 247.764V246.24C309.756 246.089 310.193 245.964 310.688 245.865C311.188 245.766 311.706 245.717 312.243 245.717C312.831 245.717 313.336 245.774 313.758 245.889C314.18 245.998 314.526 246.165 314.797 246.389C315.073 246.613 315.276 246.894 315.407 247.232C315.537 247.566 315.602 247.956 315.602 248.404V253.826H313.969ZM313.696 250.318H312.532C312.209 250.318 311.935 250.35 311.711 250.412C311.487 250.475 311.305 250.56 311.165 250.67C311.024 250.779 310.92 250.907 310.852 251.053C310.79 251.193 310.758 251.344 310.758 251.506C310.758 251.829 310.862 252.076 311.071 252.248C311.279 252.415 311.563 252.498 311.922 252.498C312.188 252.498 312.464 252.402 312.75 252.209C313.037 252.016 313.352 251.74 313.696 251.381V250.318ZM322.782 253.826L322.735 252.654C322.568 252.857 322.396 253.042 322.219 253.209C322.042 253.376 321.852 253.519 321.649 253.639C321.446 253.753 321.227 253.842 320.993 253.904C320.763 253.972 320.508 254.006 320.227 254.006C319.758 254.006 319.342 253.912 318.977 253.725C318.612 253.537 318.305 253.271 318.055 252.928C317.81 252.579 317.623 252.157 317.493 251.662C317.362 251.167 317.297 250.615 317.297 250.006C317.297 249.277 317.399 248.646 317.602 248.115C317.81 247.579 318.097 247.136 318.461 246.787C318.826 246.433 319.258 246.172 319.758 246.006C320.258 245.834 320.803 245.748 321.391 245.748C321.589 245.748 321.787 245.761 321.985 245.787C322.188 245.813 322.368 245.847 322.524 245.889V242.787H324.43V253.826H322.782ZM319.297 249.92C319.297 250.357 319.326 250.732 319.383 251.045C319.446 251.352 319.534 251.605 319.649 251.803C319.769 252.001 319.915 252.146 320.086 252.24C320.258 252.329 320.454 252.373 320.672 252.373C320.995 252.373 321.303 252.243 321.594 251.982C321.886 251.722 322.196 251.365 322.524 250.912V247.443C322.373 247.386 322.185 247.339 321.961 247.303C321.743 247.266 321.521 247.248 321.297 247.248C320.99 247.248 320.714 247.31 320.469 247.435C320.224 247.56 320.013 247.738 319.836 247.967C319.665 248.196 319.532 248.477 319.438 248.81C319.344 249.139 319.297 249.508 319.297 249.92ZM333.5 249.248C333.5 249.378 333.495 249.547 333.485 249.756C333.48 249.964 333.469 250.159 333.454 250.342H328.235C328.235 250.691 328.287 250.998 328.391 251.264C328.5 251.529 328.651 251.753 328.844 251.935C329.042 252.113 329.276 252.248 329.547 252.342C329.823 252.435 330.128 252.482 330.461 252.482C330.847 252.482 331.258 252.454 331.696 252.396C332.138 252.334 332.597 252.235 333.071 252.1V253.615C332.868 253.672 332.646 253.725 332.407 253.771C332.167 253.818 331.922 253.86 331.672 253.896C331.422 253.933 331.17 253.959 330.915 253.975C330.659 253.995 330.412 254.006 330.172 254.006C329.568 254.006 329.026 253.92 328.547 253.748C328.068 253.576 327.662 253.323 327.329 252.99C326.995 252.652 326.74 252.235 326.563 251.74C326.386 251.245 326.297 250.672 326.297 250.021C326.297 249.376 326.386 248.79 326.563 248.264C326.74 247.732 326.99 247.279 327.313 246.904C327.636 246.524 328.026 246.232 328.485 246.029C328.948 245.821 329.464 245.717 330.032 245.717C330.594 245.717 331.092 245.805 331.524 245.982C331.956 246.154 332.318 246.396 332.61 246.709C332.901 247.021 333.123 247.394 333.274 247.826C333.425 248.258 333.5 248.732 333.5 249.248ZM331.563 248.975C331.568 248.662 331.529 248.391 331.446 248.162C331.362 247.928 331.248 247.735 331.102 247.584C330.961 247.433 330.795 247.321 330.602 247.248C330.415 247.175 330.211 247.139 329.993 247.139C329.513 247.139 329.12 247.3 328.813 247.623C328.506 247.941 328.323 248.391 328.266 248.975H331.563ZM340.493 248.975C340.503 248.678 340.487 248.425 340.446 248.217C340.409 248.008 340.347 247.836 340.258 247.701C340.175 247.566 340.071 247.467 339.946 247.404C339.821 247.342 339.678 247.31 339.516 247.31C339.235 247.31 338.943 247.428 338.641 247.662C338.344 247.891 338.016 248.271 337.657 248.803V253.826H335.704V245.889H337.43L337.5 247.045C337.631 246.842 337.776 246.659 337.938 246.498C338.105 246.336 338.287 246.198 338.485 246.084C338.688 245.964 338.912 245.873 339.157 245.81C339.401 245.748 339.67 245.717 339.961 245.717C340.362 245.717 340.717 245.787 341.024 245.928C341.336 246.063 341.597 246.266 341.805 246.537C342.019 246.808 342.175 247.149 342.274 247.56C342.378 247.967 342.422 248.438 342.407 248.975H340.493ZM344.266 245.185V243.615H350.719V245.185H348.469V252.24H350.719V253.826H344.266V252.24H346.516V245.185H344.266ZM357.969 253.826L357.922 252.654C357.756 252.857 357.584 253.042 357.407 253.209C357.23 253.376 357.04 253.519 356.836 253.639C356.633 253.753 356.415 253.842 356.18 253.904C355.951 253.972 355.696 254.006 355.415 254.006C354.946 254.006 354.529 253.912 354.165 253.725C353.8 253.537 353.493 253.271 353.243 252.928C352.998 252.579 352.81 252.157 352.68 251.662C352.55 251.167 352.485 250.615 352.485 250.006C352.485 249.277 352.586 248.646 352.79 248.115C352.998 247.579 353.284 247.136 353.649 246.787C354.013 246.433 354.446 246.172 354.946 246.006C355.446 245.834 355.99 245.748 356.579 245.748C356.776 245.748 356.974 245.761 357.172 245.787C357.375 245.813 357.555 245.847 357.711 245.889V242.787H359.618V253.826H357.969ZM354.485 249.92C354.485 250.357 354.513 250.732 354.571 251.045C354.633 251.352 354.722 251.605 354.836 251.803C354.956 252.001 355.102 252.146 355.274 252.24C355.446 252.329 355.641 252.373 355.86 252.373C356.183 252.373 356.49 252.243 356.782 251.982C357.073 251.722 357.383 251.365 357.711 250.912V247.443C357.56 247.386 357.373 247.339 357.149 247.303C356.93 247.266 356.709 247.248 356.485 247.248C356.178 247.248 355.901 247.31 355.657 247.435C355.412 247.56 355.201 247.738 355.024 247.967C354.852 248.196 354.719 248.477 354.625 248.81C354.532 249.139 354.485 249.508 354.485 249.92Z" fill="black"/>
<path d="M277 337C277 344.286 271.966 351.244 263.048 356.489C254.177 361.708 241.79 365 228 365C214.21 365 201.823 361.708 192.952 356.489C184.034 351.244 179 344.286 179 337C179 329.714 184.034 322.756 192.952 317.511C201.823 312.292 214.21 309 228 309C241.79 309 254.177 312.292 263.048 317.511C271.966 322.756 277 329.714 277 337Z" fill="#7DE77B" stroke="black" stroke-width="4"/>
<path d="M208.249 339.609L207.687 337.593H204.124L203.546 339.609H201.64L204.663 329.398H207.351L210.374 339.609H208.249ZM205.929 331.273L204.585 336.023H207.257L205.929 331.273ZM216.601 334.757C216.611 334.46 216.596 334.208 216.554 333.999C216.518 333.791 216.455 333.619 216.367 333.484C216.283 333.348 216.179 333.249 216.054 333.187C215.929 333.124 215.786 333.093 215.624 333.093C215.343 333.093 215.051 333.21 214.749 333.445C214.453 333.674 214.124 334.054 213.765 334.585V339.609H211.812V331.671H213.538L213.609 332.827C213.739 332.624 213.885 332.442 214.046 332.281C214.213 332.119 214.395 331.981 214.593 331.867C214.796 331.747 215.02 331.656 215.265 331.593C215.51 331.531 215.778 331.499 216.07 331.499C216.471 331.499 216.825 331.57 217.132 331.71C217.445 331.846 217.705 332.049 217.913 332.32C218.127 332.59 218.283 332.932 218.382 333.343C218.486 333.749 218.531 334.221 218.515 334.757H216.601ZM226.835 339.531C226.492 339.609 226.145 339.671 225.796 339.718C225.447 339.765 225.117 339.788 224.804 339.788C224.283 339.788 223.833 339.734 223.453 339.624C223.078 339.515 222.765 339.348 222.515 339.124C222.27 338.9 222.088 338.617 221.968 338.273C221.854 337.924 221.796 337.51 221.796 337.031V333.156H219.663V331.671H221.796V329.64L223.749 329.132V331.671H226.835V333.156H223.749V336.89C223.749 337.343 223.854 337.687 224.062 337.921C224.27 338.15 224.619 338.265 225.109 338.265C225.421 338.265 225.726 338.239 226.023 338.187C226.32 338.135 226.591 338.075 226.835 338.007V339.531ZM233.757 329.499C233.757 329.671 233.726 329.833 233.663 329.984C233.601 330.135 233.512 330.268 233.398 330.382C233.288 330.492 233.158 330.58 233.007 330.648C232.856 330.71 232.692 330.742 232.515 330.742C232.338 330.742 232.171 330.71 232.015 330.648C231.864 330.58 231.731 330.492 231.617 330.382C231.507 330.268 231.421 330.135 231.359 329.984C231.296 329.833 231.265 329.671 231.265 329.499C231.265 329.327 231.296 329.166 231.359 329.015C231.421 328.864 231.507 328.731 231.617 328.617C231.731 328.502 231.864 328.413 232.015 328.351C232.171 328.283 232.338 328.249 232.515 328.249C232.692 328.249 232.856 328.283 233.007 328.351C233.158 328.413 233.288 328.502 233.398 328.617C233.512 328.731 233.601 328.864 233.663 329.015C233.726 329.166 233.757 329.327 233.757 329.499ZM231.648 333.156H229.406V331.671H233.601V338.124H235.89V339.609H229.132V338.124H231.648V333.156ZM244.429 337.273C244.429 337.726 244.328 338.114 244.124 338.437C243.926 338.755 243.661 339.015 243.328 339.218C242.999 339.416 242.624 339.559 242.203 339.648C241.786 339.742 241.359 339.788 240.921 339.788C240.338 339.788 239.812 339.76 239.343 339.702C238.874 339.65 238.432 339.572 238.015 339.468V337.749C238.505 337.952 238.992 338.101 239.476 338.195C239.966 338.283 240.426 338.327 240.859 338.327C241.359 338.327 241.731 338.249 241.976 338.093C242.226 337.932 242.351 337.723 242.351 337.468C242.351 337.348 242.325 337.239 242.273 337.14C242.221 337.041 242.122 336.947 241.976 336.859C241.835 336.765 241.635 336.671 241.374 336.577C241.114 336.478 240.773 336.369 240.351 336.249C239.96 336.14 239.617 336.018 239.32 335.882C239.028 335.742 238.786 335.577 238.593 335.39C238.4 335.202 238.255 334.986 238.156 334.742C238.062 334.492 238.015 334.2 238.015 333.867C238.015 333.544 238.088 333.239 238.234 332.952C238.38 332.666 238.596 332.416 238.882 332.202C239.174 331.984 239.536 331.812 239.968 331.687C240.4 331.562 240.906 331.499 241.484 331.499C241.984 331.499 242.426 331.525 242.812 331.577C243.197 331.63 243.538 331.687 243.835 331.749V333.304C243.382 333.158 242.955 333.057 242.554 332.999C242.158 332.937 241.765 332.906 241.374 332.906C240.984 332.906 240.669 332.976 240.429 333.117C240.195 333.257 240.078 333.452 240.078 333.702C240.078 333.822 240.101 333.929 240.148 334.023C240.195 334.117 240.286 334.208 240.421 334.296C240.562 334.385 240.755 334.478 240.999 334.577C241.249 334.671 241.578 334.775 241.984 334.89C242.442 335.02 242.828 335.161 243.14 335.312C243.453 335.458 243.703 335.624 243.89 335.812C244.083 335.999 244.221 336.213 244.304 336.452C244.387 336.692 244.429 336.965 244.429 337.273ZM253.226 339.531C252.882 339.609 252.536 339.671 252.187 339.718C251.838 339.765 251.507 339.788 251.195 339.788C250.674 339.788 250.223 339.734 249.843 339.624C249.468 339.515 249.156 339.348 248.906 339.124C248.661 338.9 248.479 338.617 248.359 338.273C248.244 337.924 248.187 337.51 248.187 337.031V333.156H246.054V331.671H248.187V329.64L250.14 329.132V331.671H253.226V333.156H250.14V336.89C250.14 337.343 250.244 337.687 250.453 337.921C250.661 338.15 251.01 338.265 251.499 338.265C251.812 338.265 252.117 338.239 252.413 338.187C252.71 338.135 252.981 338.075 253.226 338.007V339.531Z" fill="black"/>
<path d="M255 438C255 445.286 249.966 452.244 241.048 457.489C232.177 462.708 219.79 466 206 466C192.21 466 179.823 462.708 170.952 457.489C162.034 452.244 157 445.286 157 438C157 430.714 162.034 423.756 170.952 418.511C179.823 413.292 192.21 410 206 410C219.79 410 232.177 413.292 241.048 418.511C249.966 423.756 255 430.714 255 438Z" fill="#7DE77B" stroke="black" stroke-width="4"/>
<path d="M184.054 436.288V434.702H187.687V440.148C187.218 440.367 186.729 440.528 186.218 440.632C185.708 440.736 185.153 440.788 184.554 440.788C183.846 440.788 183.208 440.679 182.64 440.46C182.078 440.242 181.598 439.916 181.203 439.484C180.807 439.051 180.502 438.515 180.288 437.874C180.08 437.234 179.976 436.492 179.976 435.648C179.976 434.799 180.085 434.038 180.304 433.367C180.528 432.695 180.851 432.127 181.273 431.663C181.7 431.195 182.221 430.838 182.835 430.593C183.455 430.348 184.161 430.226 184.953 430.226C185.421 430.226 185.877 430.268 186.32 430.351C186.768 430.429 187.213 430.536 187.656 430.671V432.57C187.27 432.387 186.843 432.239 186.374 432.124C185.911 432.005 185.442 431.945 184.968 431.945C184.489 431.945 184.064 432.028 183.695 432.195C183.33 432.361 183.023 432.598 182.773 432.906C182.528 433.213 182.341 433.59 182.21 434.038C182.085 434.486 182.023 434.992 182.023 435.554C182.023 436.096 182.072 436.585 182.171 437.023C182.27 437.455 182.429 437.825 182.648 438.132C182.872 438.434 183.158 438.666 183.507 438.827C183.856 438.989 184.281 439.07 184.781 439.07C184.9 439.07 185.005 439.067 185.093 439.062C185.182 439.051 185.265 439.038 185.343 439.023C185.421 439.007 185.494 438.989 185.562 438.968C185.635 438.947 185.71 438.924 185.788 438.898V436.288H184.054ZM196.406 436.031C196.406 436.161 196.4 436.33 196.39 436.538C196.385 436.747 196.374 436.942 196.359 437.124H191.14C191.14 437.473 191.192 437.781 191.296 438.046C191.406 438.312 191.557 438.536 191.749 438.718C191.947 438.895 192.182 439.031 192.453 439.124C192.729 439.218 193.033 439.265 193.367 439.265C193.752 439.265 194.163 439.236 194.601 439.179C195.044 439.117 195.502 439.018 195.976 438.882V440.398C195.773 440.455 195.551 440.507 195.312 440.554C195.072 440.601 194.828 440.643 194.578 440.679C194.328 440.715 194.075 440.742 193.82 440.757C193.564 440.778 193.317 440.788 193.078 440.788C192.473 440.788 191.932 440.702 191.453 440.531C190.973 440.359 190.567 440.106 190.234 439.773C189.9 439.434 189.645 439.018 189.468 438.523C189.291 438.028 189.203 437.455 189.203 436.804C189.203 436.158 189.291 435.572 189.468 435.046C189.645 434.515 189.895 434.062 190.218 433.687C190.541 433.307 190.932 433.015 191.39 432.812C191.854 432.603 192.369 432.499 192.937 432.499C193.499 432.499 193.997 432.588 194.429 432.765C194.861 432.937 195.223 433.179 195.515 433.492C195.807 433.804 196.028 434.176 196.179 434.609C196.33 435.041 196.406 435.515 196.406 436.031ZM194.468 435.757C194.473 435.445 194.434 435.174 194.351 434.945C194.268 434.71 194.153 434.518 194.007 434.367C193.867 434.215 193.7 434.103 193.507 434.031C193.32 433.958 193.117 433.921 192.898 433.921C192.419 433.921 192.025 434.083 191.718 434.406C191.411 434.723 191.229 435.174 191.171 435.757H194.468ZM203.023 440.609V435.437C203.023 434.567 202.7 434.132 202.054 434.132C201.731 434.132 201.421 434.262 201.124 434.523C200.833 434.783 200.523 435.137 200.195 435.585V440.609H198.288V432.671H199.937L199.984 433.843C200.145 433.64 200.312 433.455 200.484 433.288C200.661 433.122 200.851 432.981 201.054 432.867C201.257 432.747 201.476 432.656 201.71 432.593C201.945 432.531 202.208 432.499 202.499 432.499C202.906 432.499 203.26 432.567 203.562 432.702C203.864 432.833 204.117 433.02 204.32 433.265C204.523 433.505 204.674 433.796 204.773 434.14C204.877 434.478 204.929 434.859 204.929 435.281V440.609H203.023ZM212.195 435.757C212.205 435.46 212.189 435.208 212.148 434.999C212.111 434.791 212.049 434.619 211.96 434.484C211.877 434.348 211.773 434.249 211.648 434.187C211.523 434.124 211.38 434.093 211.218 434.093C210.937 434.093 210.645 434.21 210.343 434.445C210.046 434.674 209.718 435.054 209.359 435.585V440.609H207.406V432.671H209.132L209.203 433.827C209.333 433.624 209.479 433.442 209.64 433.281C209.807 433.119 209.989 432.981 210.187 432.867C210.39 432.747 210.614 432.656 210.859 432.593C211.104 432.531 211.372 432.499 211.663 432.499C212.064 432.499 212.419 432.57 212.726 432.71C213.038 432.846 213.299 433.049 213.507 433.32C213.721 433.59 213.877 433.932 213.976 434.343C214.08 434.749 214.124 435.221 214.109 435.757H212.195ZM222.796 436.031C222.796 436.161 222.791 436.33 222.781 436.538C222.775 436.747 222.765 436.942 222.749 437.124H217.531C217.531 437.473 217.583 437.781 217.687 438.046C217.796 438.312 217.947 438.536 218.14 438.718C218.338 438.895 218.572 439.031 218.843 439.124C219.119 439.218 219.424 439.265 219.757 439.265C220.143 439.265 220.554 439.236 220.992 439.179C221.434 439.117 221.893 439.018 222.367 438.882V440.398C222.163 440.455 221.942 440.507 221.703 440.554C221.463 440.601 221.218 440.643 220.968 440.679C220.718 440.715 220.466 440.742 220.21 440.757C219.955 440.778 219.708 440.788 219.468 440.788C218.864 440.788 218.322 440.702 217.843 440.531C217.364 440.359 216.958 440.106 216.624 439.773C216.291 439.434 216.036 439.018 215.859 438.523C215.682 438.028 215.593 437.455 215.593 436.804C215.593 436.158 215.682 435.572 215.859 435.046C216.036 434.515 216.286 434.062 216.609 433.687C216.932 433.307 217.322 433.015 217.781 432.812C218.244 432.603 218.76 432.499 219.328 432.499C219.89 432.499 220.387 432.588 220.82 432.765C221.252 432.937 221.614 433.179 221.906 433.492C222.197 433.804 222.419 434.176 222.57 434.609C222.721 435.041 222.796 435.515 222.796 436.031ZM220.859 435.757C220.864 435.445 220.825 435.174 220.742 434.945C220.658 434.71 220.544 434.518 220.398 434.367C220.257 434.215 220.091 434.103 219.898 434.031C219.71 433.958 219.507 433.921 219.288 433.921C218.809 433.921 218.416 434.083 218.109 434.406C217.801 434.723 217.619 435.174 217.562 435.757H220.859ZM231.226 438.273C231.226 438.726 231.124 439.114 230.921 439.437C230.723 439.755 230.458 440.015 230.124 440.218C229.796 440.416 229.421 440.559 228.999 440.648C228.583 440.742 228.156 440.788 227.718 440.788C227.135 440.788 226.609 440.76 226.14 440.702C225.671 440.65 225.229 440.572 224.812 440.468V438.749C225.301 438.952 225.788 439.101 226.273 439.195C226.762 439.283 227.223 439.327 227.656 439.327C228.156 439.327 228.528 439.249 228.773 439.093C229.023 438.932 229.148 438.723 229.148 438.468C229.148 438.348 229.122 438.239 229.07 438.14C229.018 438.041 228.919 437.947 228.773 437.859C228.632 437.765 228.432 437.671 228.171 437.577C227.911 437.478 227.57 437.369 227.148 437.249C226.757 437.14 226.413 437.018 226.117 436.882C225.825 436.742 225.583 436.577 225.39 436.39C225.197 436.202 225.051 435.986 224.953 435.742C224.859 435.492 224.812 435.2 224.812 434.867C224.812 434.544 224.885 434.239 225.031 433.952C225.176 433.666 225.393 433.416 225.679 433.202C225.971 432.984 226.333 432.812 226.765 432.687C227.197 432.562 227.703 432.499 228.281 432.499C228.781 432.499 229.223 432.525 229.609 432.577C229.994 432.63 230.335 432.687 230.632 432.749V434.304C230.179 434.158 229.752 434.057 229.351 433.999C228.955 433.937 228.562 433.906 228.171 433.906C227.781 433.906 227.466 433.976 227.226 434.117C226.992 434.257 226.874 434.452 226.874 434.702C226.874 434.822 226.898 434.929 226.945 435.023C226.992 435.117 227.083 435.208 227.218 435.296C227.359 435.385 227.551 435.478 227.796 435.577C228.046 435.671 228.374 435.775 228.781 435.89C229.239 436.02 229.624 436.161 229.937 436.312C230.249 436.458 230.499 436.624 230.687 436.812C230.88 436.999 231.018 437.213 231.101 437.452C231.184 437.692 231.226 437.965 231.226 438.273Z" fill="black"/>
<line x1="225.999" y1="184.934" x2="229.999" y2="306.934" stroke="black" stroke-width="4"/>
<line x1="225.949" y1="363.447" x2="214.949" y2="411.447" stroke="black" stroke-width="4"/>
<line x1="123.924" y1="272.452" x2="166.924" y2="423.452" stroke="black" stroke-width="4"/>
<line x1="224.829" y1="186.18" x2="303.829" y2="222.18" stroke="black" stroke-width="4"/>
<line x1="225.147" y1="186.638" x2="165.147" y2="228.638" stroke="black" stroke-width="4"/>
<line x1="286.991" y1="130.273" x2="416.991" y2="54.2734" stroke="black" stroke-width="4"/>
<path d="M428.964 21L428.05 17.7246H422.261L421.321 21H418.224L423.137 4.40723H427.504L432.417 21H428.964ZM425.193 7.4541L423.01 15.1729H427.352L425.193 7.4541ZM443.906 10.3613C444.143 10.6576 444.308 10.9707 444.401 11.3008C444.503 11.6224 444.554 11.9525 444.554 12.291C444.554 13.0104 444.427 13.6452 444.173 14.1953C443.927 14.7454 443.576 15.2067 443.119 15.5791C442.671 15.9515 442.129 16.235 441.494 16.4297C440.868 16.6159 440.174 16.709 439.412 16.709C438.964 16.709 438.549 16.6667 438.168 16.582C437.787 16.4889 437.499 16.3831 437.305 16.2646C437.161 16.4085 437.038 16.5693 436.937 16.7471C436.835 16.9163 436.784 17.111 436.784 17.3311C436.784 17.4665 436.818 17.6019 436.886 17.7373C436.953 17.8727 437.051 17.9954 437.178 18.1055C437.313 18.207 437.47 18.2917 437.647 18.3594C437.834 18.4271 438.041 18.4652 438.27 18.4736L441.329 18.5879C442.015 18.6048 442.632 18.6937 443.183 18.8545C443.741 19.0068 444.219 19.2269 444.617 19.5146C445.015 19.8024 445.32 20.1536 445.531 20.5684C445.751 20.9746 445.861 21.4401 445.861 21.9648C445.861 22.5658 445.726 23.1328 445.455 23.666C445.184 24.1992 444.774 24.6605 444.224 25.0498C443.682 25.4476 443.005 25.7607 442.192 25.9893C441.38 26.2178 440.436 26.332 439.361 26.332C438.32 26.332 437.423 26.2474 436.67 26.0781C435.925 25.9173 435.312 25.6888 434.829 25.3926C434.355 25.0964 434.004 24.7409 433.775 24.3262C433.547 23.9199 433.433 23.4714 433.433 22.9805C433.433 22.6842 433.471 22.4092 433.547 22.1553C433.623 21.9014 433.737 21.6559 433.89 21.4189C434.042 21.1904 434.232 20.9661 434.461 20.7461C434.689 20.526 434.96 20.306 435.273 20.0859C434.859 19.849 434.541 19.5443 434.321 19.1719C434.11 18.7995 434.004 18.4017 434.004 17.9785C434.004 17.6908 434.042 17.4242 434.118 17.1787C434.194 16.9248 434.292 16.6836 434.41 16.4551C434.537 16.2266 434.681 16.0065 434.842 15.7949C435.003 15.5833 435.172 15.376 435.35 15.1729C435.036 14.8597 434.774 14.4831 434.562 14.043C434.359 13.5944 434.258 13.0358 434.258 12.3672C434.258 11.6478 434.385 11.0088 434.639 10.4502C434.901 9.88314 435.261 9.40918 435.718 9.02832C436.175 8.639 436.716 8.34701 437.343 8.15234C437.978 7.94922 438.667 7.84766 439.412 7.84766C439.793 7.84766 440.157 7.86882 440.504 7.91113C440.859 7.94499 441.181 8.00846 441.469 8.10156H445.938V10.3613H443.906ZM436.606 22.7139C436.606 23.2132 436.856 23.5814 437.355 23.8184C437.863 24.0553 438.574 24.1738 439.488 24.1738C440.072 24.1738 440.563 24.1188 440.961 24.0088C441.367 23.8988 441.697 23.7549 441.951 23.5771C442.205 23.3994 442.387 23.1921 442.497 22.9551C442.607 22.7181 442.662 22.4727 442.662 22.2188C442.662 21.9902 442.607 21.7956 442.497 21.6348C442.396 21.4824 442.247 21.3512 442.053 21.2412C441.867 21.1396 441.642 21.0592 441.38 21C441.126 20.9492 440.842 20.9154 440.529 20.8984L437.8 20.8477C437.554 21.0169 437.351 21.1777 437.19 21.3301C437.038 21.4824 436.915 21.6305 436.822 21.7744C436.738 21.9268 436.678 22.0791 436.645 22.2314C436.619 22.3838 436.606 22.5446 436.606 22.7139ZM437.127 12.3672C437.127 13.0527 437.326 13.5986 437.724 14.0049C438.13 14.4027 438.693 14.6016 439.412 14.6016C439.793 14.6016 440.123 14.5381 440.402 14.4111C440.69 14.2842 440.927 14.1149 441.113 13.9033C441.299 13.6917 441.439 13.4463 441.532 13.167C441.625 12.8877 441.672 12.5957 441.672 12.291C441.672 11.5716 441.469 11.013 441.062 10.6152C440.665 10.209 440.106 10.0059 439.387 10.0059C439.006 10.0059 438.672 10.0693 438.384 10.1963C438.104 10.3232 437.872 10.4967 437.686 10.7168C437.499 10.9284 437.36 11.1781 437.267 11.4658C437.174 11.7536 437.127 12.054 437.127 12.3672ZM458.201 10.3613C458.438 10.6576 458.603 10.9707 458.696 11.3008C458.798 11.6224 458.849 11.9525 458.849 12.291C458.849 13.0104 458.722 13.6452 458.468 14.1953C458.222 14.7454 457.871 15.2067 457.414 15.5791C456.965 15.9515 456.424 16.235 455.789 16.4297C455.163 16.6159 454.469 16.709 453.707 16.709C453.258 16.709 452.844 16.6667 452.463 16.582C452.082 16.4889 451.794 16.3831 451.6 16.2646C451.456 16.4085 451.333 16.5693 451.231 16.7471C451.13 16.9163 451.079 17.111 451.079 17.3311C451.079 17.4665 451.113 17.6019 451.181 17.7373C451.248 17.8727 451.346 17.9954 451.473 18.1055C451.608 18.207 451.765 18.2917 451.942 18.3594C452.129 18.4271 452.336 18.4652 452.564 18.4736L455.624 18.5879C456.31 18.6048 456.927 18.6937 457.478 18.8545C458.036 19.0068 458.514 19.2269 458.912 19.5146C459.31 19.8024 459.615 20.1536 459.826 20.5684C460.046 20.9746 460.156 21.4401 460.156 21.9648C460.156 22.5658 460.021 23.1328 459.75 23.666C459.479 24.1992 459.069 24.6605 458.519 25.0498C457.977 25.4476 457.3 25.7607 456.487 25.9893C455.675 26.2178 454.731 26.332 453.656 26.332C452.615 26.332 451.718 26.2474 450.965 26.0781C450.22 25.9173 449.606 25.6888 449.124 25.3926C448.65 25.0964 448.299 24.7409 448.07 24.3262C447.842 23.9199 447.728 23.4714 447.728 22.9805C447.728 22.6842 447.766 22.4092 447.842 22.1553C447.918 21.9014 448.032 21.6559 448.185 21.4189C448.337 21.1904 448.527 20.9661 448.756 20.7461C448.984 20.526 449.255 20.306 449.568 20.0859C449.154 19.849 448.836 19.5443 448.616 19.1719C448.405 18.7995 448.299 18.4017 448.299 17.9785C448.299 17.6908 448.337 17.4242 448.413 17.1787C448.489 16.9248 448.587 16.6836 448.705 16.4551C448.832 16.2266 448.976 16.0065 449.137 15.7949C449.298 15.5833 449.467 15.376 449.645 15.1729C449.331 14.8597 449.069 14.4831 448.857 14.043C448.654 13.5944 448.553 13.0358 448.553 12.3672C448.553 11.6478 448.68 11.0088 448.934 10.4502C449.196 9.88314 449.556 9.40918 450.013 9.02832C450.47 8.639 451.011 8.34701 451.638 8.15234C452.272 7.94922 452.962 7.84766 453.707 7.84766C454.088 7.84766 454.452 7.86882 454.799 7.91113C455.154 7.94499 455.476 8.00846 455.764 8.10156H460.232V10.3613H458.201ZM450.901 22.7139C450.901 23.2132 451.151 23.5814 451.65 23.8184C452.158 24.0553 452.869 24.1738 453.783 24.1738C454.367 24.1738 454.858 24.1188 455.256 24.0088C455.662 23.8988 455.992 23.7549 456.246 23.5771C456.5 23.3994 456.682 23.1921 456.792 22.9551C456.902 22.7181 456.957 22.4727 456.957 22.2188C456.957 21.9902 456.902 21.7956 456.792 21.6348C456.69 21.4824 456.542 21.3512 456.348 21.2412C456.161 21.1396 455.937 21.0592 455.675 21C455.421 20.9492 455.137 20.9154 454.824 20.8984L452.095 20.8477C451.849 21.0169 451.646 21.1777 451.485 21.3301C451.333 21.4824 451.21 21.6305 451.117 21.7744C451.033 21.9268 450.973 22.0791 450.939 22.2314C450.914 22.3838 450.901 22.5446 450.901 22.7139ZM451.422 12.3672C451.422 13.0527 451.621 13.5986 452.019 14.0049C452.425 14.4027 452.988 14.6016 453.707 14.6016C454.088 14.6016 454.418 14.5381 454.697 14.4111C454.985 14.2842 455.222 14.1149 455.408 13.9033C455.594 13.6917 455.734 13.4463 455.827 13.167C455.92 12.8877 455.967 12.5957 455.967 12.291C455.967 11.5716 455.764 11.013 455.357 10.6152C454.96 10.209 454.401 10.0059 453.682 10.0059C453.301 10.0059 452.966 10.0693 452.679 10.1963C452.399 10.3232 452.167 10.4967 451.98 10.7168C451.794 10.9284 451.655 11.1781 451.562 11.4658C451.468 11.7536 451.422 12.054 451.422 12.3672ZM471.125 13.1162C471.142 12.6338 471.117 12.2233 471.049 11.8848C470.99 11.5462 470.888 11.2669 470.744 11.0469C470.609 10.8268 470.439 10.666 470.236 10.5645C470.033 10.4629 469.8 10.4121 469.538 10.4121C469.081 10.4121 468.607 10.6025 468.116 10.9834C467.634 11.3558 467.101 11.9736 466.517 12.8369V21H463.343V8.10156H466.148L466.263 9.98047C466.474 9.65039 466.711 9.35417 466.974 9.0918C467.244 8.82943 467.541 8.60514 467.862 8.41895C468.192 8.22428 468.556 8.07617 468.954 7.97461C469.352 7.87305 469.788 7.82227 470.262 7.82227C470.913 7.82227 471.489 7.93652 471.988 8.16504C472.496 8.38509 472.919 8.71517 473.258 9.15527C473.605 9.59538 473.859 10.1497 474.02 10.8184C474.189 11.4785 474.261 12.2445 474.235 13.1162H471.125ZM488.353 13.5605C488.353 13.7721 488.344 14.0472 488.327 14.3857C488.319 14.7243 488.302 15.0417 488.276 15.3379H479.796C479.796 15.9049 479.881 16.4043 480.05 16.8359C480.228 17.2676 480.473 17.6315 480.786 17.9277C481.108 18.2155 481.489 18.4355 481.929 18.5879C482.377 18.7402 482.872 18.8164 483.414 18.8164C484.04 18.8164 484.709 18.7699 485.42 18.6768C486.139 18.5752 486.884 18.4144 487.654 18.1943V20.6572C487.324 20.7503 486.965 20.835 486.575 20.9111C486.186 20.9873 485.788 21.055 485.382 21.1143C484.976 21.1735 484.565 21.2158 484.15 21.2412C483.736 21.2751 483.334 21.292 482.944 21.292C481.963 21.292 481.082 21.1523 480.304 20.873C479.525 20.5938 478.865 20.1833 478.323 19.6416C477.782 19.0915 477.367 18.4144 477.079 17.6104C476.791 16.8063 476.647 15.8753 476.647 14.8174C476.647 13.7679 476.791 12.8158 477.079 11.9609C477.367 11.0977 477.773 10.3613 478.298 9.75195C478.823 9.13411 479.457 8.66016 480.202 8.33008C480.955 7.99154 481.793 7.82227 482.716 7.82227C483.63 7.82227 484.438 7.96615 485.141 8.25391C485.843 8.5332 486.431 8.92676 486.905 9.43457C487.379 9.94238 487.739 10.5475 487.984 11.25C488.23 11.9525 488.353 12.7227 488.353 13.5605ZM485.204 13.1162C485.213 12.6084 485.149 12.1683 485.014 11.7959C484.878 11.415 484.692 11.1019 484.455 10.8564C484.227 10.611 483.956 10.429 483.643 10.3105C483.338 10.1921 483.008 10.1328 482.652 10.1328C481.874 10.1328 481.235 10.3952 480.735 10.9199C480.236 11.4362 479.94 12.1683 479.847 13.1162H485.204ZM501.086 10.3613C501.323 10.6576 501.488 10.9707 501.581 11.3008C501.683 11.6224 501.733 11.9525 501.733 12.291C501.733 13.0104 501.606 13.6452 501.353 14.1953C501.107 14.7454 500.756 15.2067 500.299 15.5791C499.85 15.9515 499.309 16.235 498.674 16.4297C498.048 16.6159 497.354 16.709 496.592 16.709C496.143 16.709 495.729 16.6667 495.348 16.582C494.967 16.4889 494.679 16.3831 494.484 16.2646C494.34 16.4085 494.218 16.5693 494.116 16.7471C494.015 16.9163 493.964 17.111 493.964 17.3311C493.964 17.4665 493.998 17.6019 494.065 17.7373C494.133 17.8727 494.23 17.9954 494.357 18.1055C494.493 18.207 494.649 18.2917 494.827 18.3594C495.013 18.4271 495.221 18.4652 495.449 18.4736L498.509 18.5879C499.194 18.6048 499.812 18.6937 500.362 18.8545C500.921 19.0068 501.399 19.2269 501.797 19.5146C502.195 19.8024 502.499 20.1536 502.711 20.5684C502.931 20.9746 503.041 21.4401 503.041 21.9648C503.041 22.5658 502.906 23.1328 502.635 23.666C502.364 24.1992 501.953 24.6605 501.403 25.0498C500.862 25.4476 500.185 25.7607 499.372 25.9893C498.56 26.2178 497.616 26.332 496.541 26.332C495.5 26.332 494.603 26.2474 493.85 26.0781C493.105 25.9173 492.491 25.6888 492.009 25.3926C491.535 25.0964 491.184 24.7409 490.955 24.3262C490.727 23.9199 490.612 23.4714 490.612 22.9805C490.612 22.6842 490.65 22.4092 490.727 22.1553C490.803 21.9014 490.917 21.6559 491.069 21.4189C491.222 21.1904 491.412 20.9661 491.641 20.7461C491.869 20.526 492.14 20.306 492.453 20.0859C492.038 19.849 491.721 19.5443 491.501 19.1719C491.289 18.7995 491.184 18.4017 491.184 17.9785C491.184 17.6908 491.222 17.4242 491.298 17.1787C491.374 16.9248 491.471 16.6836 491.59 16.4551C491.717 16.2266 491.861 16.0065 492.021 15.7949C492.182 15.5833 492.352 15.376 492.529 15.1729C492.216 14.8597 491.954 14.4831 491.742 14.043C491.539 13.5944 491.438 13.0358 491.438 12.3672C491.438 11.6478 491.564 11.0088 491.818 10.4502C492.081 9.88314 492.44 9.40918 492.897 9.02832C493.354 8.639 493.896 8.34701 494.522 8.15234C495.157 7.94922 495.847 7.84766 496.592 7.84766C496.973 7.84766 497.337 7.86882 497.684 7.91113C498.039 7.94499 498.361 8.00846 498.648 8.10156H503.117V10.3613H501.086ZM493.786 22.7139C493.786 23.2132 494.036 23.5814 494.535 23.8184C495.043 24.0553 495.754 24.1738 496.668 24.1738C497.252 24.1738 497.743 24.1188 498.141 24.0088C498.547 23.8988 498.877 23.7549 499.131 23.5771C499.385 23.3994 499.567 23.1921 499.677 22.9551C499.787 22.7181 499.842 22.4727 499.842 22.2188C499.842 21.9902 499.787 21.7956 499.677 21.6348C499.575 21.4824 499.427 21.3512 499.232 21.2412C499.046 21.1396 498.822 21.0592 498.56 21C498.306 20.9492 498.022 20.9154 497.709 20.8984L494.979 20.8477C494.734 21.0169 494.531 21.1777 494.37 21.3301C494.218 21.4824 494.095 21.6305 494.002 21.7744C493.917 21.9268 493.858 22.0791 493.824 22.2314C493.799 22.3838 493.786 22.5446 493.786 22.7139ZM494.307 12.3672C494.307 13.0527 494.506 13.5986 494.903 14.0049C495.31 14.4027 495.872 14.6016 496.592 14.6016C496.973 14.6016 497.303 14.5381 497.582 14.4111C497.87 14.2842 498.107 14.1149 498.293 13.9033C498.479 13.6917 498.619 13.4463 498.712 13.167C498.805 12.8877 498.852 12.5957 498.852 12.291C498.852 11.5716 498.648 11.013 498.242 10.6152C497.844 10.209 497.286 10.0059 496.566 10.0059C496.186 10.0059 495.851 10.0693 495.563 10.1963C495.284 10.3232 495.051 10.4967 494.865 10.7168C494.679 10.9284 494.539 11.1781 494.446 11.4658C494.353 11.7536 494.307 12.054 494.307 12.3672ZM513.794 21L513.718 19.3115C513.447 19.5993 513.163 19.8659 512.867 20.1113C512.571 20.3483 512.245 20.5557 511.89 20.7334C511.534 20.9111 511.145 21.0465 510.722 21.1396C510.307 21.2412 509.85 21.292 509.351 21.292C508.69 21.292 508.111 21.1947 507.611 21C507.112 20.8053 506.693 20.5345 506.354 20.1875C506.016 19.8405 505.758 19.4215 505.58 18.9307C505.411 18.4398 505.326 17.8981 505.326 17.3057C505.326 16.6963 505.453 16.1335 505.707 15.6172C505.969 15.1009 506.363 14.6566 506.888 14.2842C507.421 13.9118 508.081 13.6198 508.868 13.4082C509.664 13.1966 510.595 13.0908 511.661 13.0908H513.35V12.3164C513.35 11.9863 513.303 11.6901 513.21 11.4277C513.117 11.1569 512.965 10.9284 512.753 10.7422C512.55 10.556 512.283 10.4121 511.953 10.3105C511.623 10.209 511.217 10.1582 510.734 10.1582C509.973 10.1582 509.219 10.2471 508.475 10.4248C507.738 10.5941 507.023 10.8353 506.329 11.1484V8.67285C506.947 8.42741 507.658 8.22428 508.462 8.06348C509.274 7.90267 510.117 7.82227 510.988 7.82227C511.945 7.82227 512.766 7.91536 513.451 8.10156C514.137 8.2793 514.7 8.55013 515.14 8.91406C515.588 9.27799 515.918 9.73503 516.13 10.2852C516.341 10.8268 516.447 11.4616 516.447 12.1895V21H513.794ZM513.35 15.2998H511.458C510.933 15.2998 510.489 15.3506 510.125 15.4521C509.761 15.5537 509.465 15.6934 509.236 15.8711C509.008 16.0488 508.839 16.2562 508.729 16.4932C508.627 16.7217 508.576 16.9671 508.576 17.2295C508.576 17.7542 508.745 18.1562 509.084 18.4355C509.423 18.7064 509.884 18.8418 510.468 18.8418C510.899 18.8418 511.348 18.6852 511.813 18.3721C512.279 18.0589 512.791 17.6104 513.35 17.0264V15.2998ZM530.641 20.873C530.082 21 529.519 21.1016 528.952 21.1777C528.385 21.2539 527.848 21.292 527.34 21.292C526.493 21.292 525.761 21.2031 525.144 21.0254C524.534 20.8477 524.026 20.5768 523.62 20.2129C523.222 19.849 522.926 19.3877 522.731 18.8291C522.545 18.262 522.452 17.5892 522.452 16.8105V10.5137H518.986V8.10156H522.452V4.80078L525.626 3.97559V8.10156H530.641V10.5137H525.626V16.582C525.626 17.3184 525.795 17.877 526.134 18.2578C526.472 18.6302 527.039 18.8164 527.835 18.8164C528.343 18.8164 528.838 18.7741 529.32 18.6895C529.803 18.6048 530.243 18.5075 530.641 18.3975V20.873ZM545.532 13.5605C545.532 13.7721 545.524 14.0472 545.507 14.3857C545.498 14.7243 545.481 15.0417 545.456 15.3379H536.976C536.976 15.9049 537.06 16.4043 537.229 16.8359C537.407 17.2676 537.653 17.6315 537.966 17.9277C538.287 18.2155 538.668 18.4355 539.108 18.5879C539.557 18.7402 540.052 18.8164 540.594 18.8164C541.22 18.8164 541.889 18.7699 542.6 18.6768C543.319 18.5752 544.064 18.4144 544.834 18.1943V20.6572C544.504 20.7503 544.144 20.835 543.755 20.9111C543.366 20.9873 542.968 21.055 542.562 21.1143C542.155 21.1735 541.745 21.2158 541.33 21.2412C540.915 21.2751 540.513 21.292 540.124 21.292C539.142 21.292 538.262 21.1523 537.483 20.873C536.705 20.5938 536.045 20.1833 535.503 19.6416C534.961 19.0915 534.547 18.4144 534.259 17.6104C533.971 16.8063 533.827 15.8753 533.827 14.8174C533.827 13.7679 533.971 12.8158 534.259 11.9609C534.547 11.0977 534.953 10.3613 535.478 9.75195C536.002 9.13411 536.637 8.66016 537.382 8.33008C538.135 7.99154 538.973 7.82227 539.896 7.82227C540.81 7.82227 541.618 7.96615 542.32 8.25391C543.023 8.5332 543.611 8.92676 544.085 9.43457C544.559 9.94238 544.919 10.5475 545.164 11.25C545.41 11.9525 545.532 12.7227 545.532 13.5605ZM542.384 13.1162C542.392 12.6084 542.329 12.1683 542.193 11.7959C542.058 11.415 541.872 11.1019 541.635 10.8564C541.406 10.611 541.135 10.429 540.822 10.3105C540.518 10.1921 540.188 10.1328 539.832 10.1328C539.053 10.1328 538.414 10.3952 537.915 10.9199C537.416 11.4362 537.119 12.1683 537.026 13.1162H542.384ZM463.914 51L461.578 45.668C461.358 45.1602 461.049 44.7793 460.651 44.5254C460.262 44.263 459.801 44.1318 459.268 44.1318H458.671V51H455.548V34.4072H460.385C461.299 34.4072 462.128 34.4876 462.873 34.6484C463.618 34.8008 464.253 35.0589 464.777 35.4229C465.302 35.7868 465.704 36.2607 465.983 36.8447C466.271 37.4287 466.415 38.1439 466.415 38.9902C466.415 39.5996 466.326 40.1413 466.148 40.6152C465.971 41.0892 465.721 41.4997 465.399 41.8467C465.078 42.1852 464.693 42.4603 464.244 42.6719C463.804 42.8835 463.322 43.0316 462.797 43.1162C463.203 43.2008 463.576 43.4336 463.914 43.8145C464.253 44.1868 464.591 44.7285 464.93 45.4395L467.583 51H463.914ZM463.14 39.2949C463.14 38.4824 462.882 37.8984 462.365 37.543C461.849 37.1875 461.075 37.0098 460.042 37.0098H458.671V41.6943H459.94C460.423 41.6943 460.859 41.6436 461.248 41.542C461.646 41.4404 461.984 41.2881 462.264 41.085C462.543 40.8818 462.759 40.6322 462.911 40.3359C463.063 40.0312 463.14 39.6842 463.14 39.2949ZM481.586 44.4492C481.586 45.4648 481.442 46.3958 481.154 47.2422C480.867 48.0801 480.452 48.7995 479.91 49.4004C479.368 50.0013 478.704 50.4668 477.917 50.7969C477.13 51.127 476.233 51.292 475.226 51.292C474.269 51.292 473.414 51.1523 472.661 50.873C471.908 50.5938 471.269 50.179 470.744 49.6289C470.219 49.0703 469.817 48.3763 469.538 47.5469C469.259 46.709 469.119 45.7357 469.119 44.627C469.119 43.6029 469.263 42.6719 469.551 41.834C469.847 40.9961 470.266 40.2809 470.808 39.6885C471.358 39.096 472.026 38.639 472.813 38.3174C473.601 37.9873 474.489 37.8223 475.479 37.8223C476.444 37.8223 477.303 37.9661 478.057 38.2539C478.81 38.5332 479.449 38.9521 479.974 39.5107C480.498 40.0693 480.896 40.7633 481.167 41.5928C481.446 42.4137 481.586 43.3659 481.586 44.4492ZM478.361 44.5254C478.361 43.1882 478.107 42.1852 477.6 41.5166C477.1 40.8395 476.36 40.501 475.378 40.501C474.836 40.501 474.375 40.6068 473.994 40.8184C473.613 41.0299 473.3 41.3219 473.055 41.6943C472.809 42.0583 472.627 42.4857 472.509 42.9766C472.399 43.4674 472.344 43.9922 472.344 44.5508C472.344 45.8965 472.615 46.9121 473.156 47.5977C473.698 48.2747 474.438 48.6133 475.378 48.6133C475.894 48.6133 476.343 48.5117 476.724 48.3086C477.104 48.097 477.413 47.8092 477.65 47.4453C477.887 47.0729 478.065 46.637 478.184 46.1377C478.302 45.6383 478.361 45.1009 478.361 44.5254ZM495.881 44.4492C495.881 45.4648 495.737 46.3958 495.449 47.2422C495.161 48.0801 494.747 48.7995 494.205 49.4004C493.663 50.0013 492.999 50.4668 492.212 50.7969C491.425 51.127 490.528 51.292 489.521 51.292C488.564 51.292 487.709 51.1523 486.956 50.873C486.203 50.5938 485.564 50.179 485.039 49.6289C484.514 49.0703 484.112 48.3763 483.833 47.5469C483.554 46.709 483.414 45.7357 483.414 44.627C483.414 43.6029 483.558 42.6719 483.846 41.834C484.142 40.9961 484.561 40.2809 485.103 39.6885C485.653 39.096 486.321 38.639 487.108 38.3174C487.896 37.9873 488.784 37.8223 489.774 37.8223C490.739 37.8223 491.598 37.9661 492.352 38.2539C493.105 38.5332 493.744 38.9521 494.269 39.5107C494.793 40.0693 495.191 40.7633 495.462 41.5928C495.741 42.4137 495.881 43.3659 495.881 44.4492ZM492.656 44.5254C492.656 43.1882 492.402 42.1852 491.895 41.5166C491.395 40.8395 490.655 40.501 489.673 40.501C489.131 40.501 488.67 40.6068 488.289 40.8184C487.908 41.0299 487.595 41.3219 487.35 41.6943C487.104 42.0583 486.922 42.4857 486.804 42.9766C486.694 43.4674 486.639 43.9922 486.639 44.5508C486.639 45.8965 486.91 46.9121 487.451 47.5977C487.993 48.2747 488.733 48.6133 489.673 48.6133C490.189 48.6133 490.638 48.5117 491.019 48.3086C491.399 48.097 491.708 47.8092 491.945 47.4453C492.182 47.0729 492.36 46.637 492.479 46.1377C492.597 45.6383 492.656 45.1009 492.656 44.5254ZM509.198 50.873C508.64 51 508.077 51.1016 507.51 51.1777C506.943 51.2539 506.405 51.292 505.897 51.292C505.051 51.292 504.319 51.2031 503.701 51.0254C503.092 50.8477 502.584 50.5768 502.178 50.2129C501.78 49.849 501.484 49.3877 501.289 48.8291C501.103 48.262 501.01 47.5892 501.01 46.8105V40.5137H497.544V38.1016H501.01V34.8008L504.184 33.9756V38.1016H509.198V40.5137H504.184V46.582C504.184 47.3184 504.353 47.877 504.691 48.2578C505.03 48.6302 505.597 48.8164 506.393 48.8164C506.9 48.8164 507.396 48.7741 507.878 48.6895C508.36 48.6048 508.8 48.5075 509.198 48.3975V50.873Z" fill="black"/>
<path d="M487.964 179L487.05 175.725H481.261L480.321 179H477.224L482.137 162.407H486.504L491.417 179H487.964ZM484.193 165.454L482.01 173.173H486.352L484.193 165.454ZM502.906 168.361C503.143 168.658 503.308 168.971 503.401 169.301C503.503 169.622 503.554 169.952 503.554 170.291C503.554 171.01 503.427 171.645 503.173 172.195C502.927 172.745 502.576 173.207 502.119 173.579C501.671 173.951 501.129 174.235 500.494 174.43C499.868 174.616 499.174 174.709 498.412 174.709C497.964 174.709 497.549 174.667 497.168 174.582C496.787 174.489 496.499 174.383 496.305 174.265C496.161 174.409 496.038 174.569 495.937 174.747C495.835 174.916 495.784 175.111 495.784 175.331C495.784 175.466 495.818 175.602 495.886 175.737C495.953 175.873 496.051 175.995 496.178 176.105C496.313 176.207 496.47 176.292 496.647 176.359C496.834 176.427 497.041 176.465 497.27 176.474L500.329 176.588C501.015 176.605 501.632 176.694 502.183 176.854C502.741 177.007 503.219 177.227 503.617 177.515C504.015 177.802 504.32 178.154 504.531 178.568C504.751 178.975 504.861 179.44 504.861 179.965C504.861 180.566 504.726 181.133 504.455 181.666C504.184 182.199 503.774 182.66 503.224 183.05C502.682 183.448 502.005 183.761 501.192 183.989C500.38 184.218 499.436 184.332 498.361 184.332C497.32 184.332 496.423 184.247 495.67 184.078C494.925 183.917 494.312 183.689 493.829 183.393C493.355 183.096 493.004 182.741 492.775 182.326C492.547 181.92 492.433 181.471 492.433 180.98C492.433 180.684 492.471 180.409 492.547 180.155C492.623 179.901 492.737 179.656 492.89 179.419C493.042 179.19 493.232 178.966 493.461 178.746C493.689 178.526 493.96 178.306 494.273 178.086C493.859 177.849 493.541 177.544 493.321 177.172C493.11 176.799 493.004 176.402 493.004 175.979C493.004 175.691 493.042 175.424 493.118 175.179C493.194 174.925 493.292 174.684 493.41 174.455C493.537 174.227 493.681 174.007 493.842 173.795C494.003 173.583 494.172 173.376 494.35 173.173C494.036 172.86 493.774 172.483 493.562 172.043C493.359 171.594 493.258 171.036 493.258 170.367C493.258 169.648 493.385 169.009 493.639 168.45C493.901 167.883 494.261 167.409 494.718 167.028C495.175 166.639 495.716 166.347 496.343 166.152C496.978 165.949 497.667 165.848 498.412 165.848C498.793 165.848 499.157 165.869 499.504 165.911C499.859 165.945 500.181 166.008 500.469 166.102H504.938V168.361H502.906ZM495.606 180.714C495.606 181.213 495.856 181.581 496.355 181.818C496.863 182.055 497.574 182.174 498.488 182.174C499.072 182.174 499.563 182.119 499.961 182.009C500.367 181.899 500.697 181.755 500.951 181.577C501.205 181.399 501.387 181.192 501.497 180.955C501.607 180.718 501.662 180.473 501.662 180.219C501.662 179.99 501.607 179.796 501.497 179.635C501.396 179.482 501.247 179.351 501.053 179.241C500.867 179.14 500.642 179.059 500.38 179C500.126 178.949 499.842 178.915 499.529 178.898L496.8 178.848C496.554 179.017 496.351 179.178 496.19 179.33C496.038 179.482 495.915 179.631 495.822 179.774C495.738 179.927 495.678 180.079 495.645 180.231C495.619 180.384 495.606 180.545 495.606 180.714ZM496.127 170.367C496.127 171.053 496.326 171.599 496.724 172.005C497.13 172.403 497.693 172.602 498.412 172.602C498.793 172.602 499.123 172.538 499.402 172.411C499.69 172.284 499.927 172.115 500.113 171.903C500.299 171.692 500.439 171.446 500.532 171.167C500.625 170.888 500.672 170.596 500.672 170.291C500.672 169.572 500.469 169.013 500.062 168.615C499.665 168.209 499.106 168.006 498.387 168.006C498.006 168.006 497.672 168.069 497.384 168.196C497.104 168.323 496.872 168.497 496.686 168.717C496.499 168.928 496.36 169.178 496.267 169.466C496.174 169.754 496.127 170.054 496.127 170.367ZM517.201 168.361C517.438 168.658 517.603 168.971 517.696 169.301C517.798 169.622 517.849 169.952 517.849 170.291C517.849 171.01 517.722 171.645 517.468 172.195C517.222 172.745 516.871 173.207 516.414 173.579C515.965 173.951 515.424 174.235 514.789 174.43C514.163 174.616 513.469 174.709 512.707 174.709C512.258 174.709 511.844 174.667 511.463 174.582C511.082 174.489 510.794 174.383 510.6 174.265C510.456 174.409 510.333 174.569 510.231 174.747C510.13 174.916 510.079 175.111 510.079 175.331C510.079 175.466 510.113 175.602 510.181 175.737C510.248 175.873 510.346 175.995 510.473 176.105C510.608 176.207 510.765 176.292 510.942 176.359C511.129 176.427 511.336 176.465 511.564 176.474L514.624 176.588C515.31 176.605 515.927 176.694 516.478 176.854C517.036 177.007 517.514 177.227 517.912 177.515C518.31 177.802 518.615 178.154 518.826 178.568C519.046 178.975 519.156 179.44 519.156 179.965C519.156 180.566 519.021 181.133 518.75 181.666C518.479 182.199 518.069 182.66 517.519 183.05C516.977 183.448 516.3 183.761 515.487 183.989C514.675 184.218 513.731 184.332 512.656 184.332C511.615 184.332 510.718 184.247 509.965 184.078C509.22 183.917 508.606 183.689 508.124 183.393C507.65 183.096 507.299 182.741 507.07 182.326C506.842 181.92 506.728 181.471 506.728 180.98C506.728 180.684 506.766 180.409 506.842 180.155C506.918 179.901 507.032 179.656 507.185 179.419C507.337 179.19 507.527 178.966 507.756 178.746C507.984 178.526 508.255 178.306 508.568 178.086C508.154 177.849 507.836 177.544 507.616 177.172C507.405 176.799 507.299 176.402 507.299 175.979C507.299 175.691 507.337 175.424 507.413 175.179C507.489 174.925 507.587 174.684 507.705 174.455C507.832 174.227 507.976 174.007 508.137 173.795C508.298 173.583 508.467 173.376 508.645 173.173C508.331 172.86 508.069 172.483 507.857 172.043C507.654 171.594 507.553 171.036 507.553 170.367C507.553 169.648 507.68 169.009 507.934 168.45C508.196 167.883 508.556 167.409 509.013 167.028C509.47 166.639 510.011 166.347 510.638 166.152C511.272 165.949 511.962 165.848 512.707 165.848C513.088 165.848 513.452 165.869 513.799 165.911C514.154 165.945 514.476 166.008 514.764 166.102H519.232V168.361H517.201ZM509.901 180.714C509.901 181.213 510.151 181.581 510.65 181.818C511.158 182.055 511.869 182.174 512.783 182.174C513.367 182.174 513.858 182.119 514.256 182.009C514.662 181.899 514.992 181.755 515.246 181.577C515.5 181.399 515.682 181.192 515.792 180.955C515.902 180.718 515.957 180.473 515.957 180.219C515.957 179.99 515.902 179.796 515.792 179.635C515.69 179.482 515.542 179.351 515.348 179.241C515.161 179.14 514.937 179.059 514.675 179C514.421 178.949 514.137 178.915 513.824 178.898L511.095 178.848C510.849 179.017 510.646 179.178 510.485 179.33C510.333 179.482 510.21 179.631 510.117 179.774C510.033 179.927 509.973 180.079 509.939 180.231C509.914 180.384 509.901 180.545 509.901 180.714ZM510.422 170.367C510.422 171.053 510.621 171.599 511.019 172.005C511.425 172.403 511.988 172.602 512.707 172.602C513.088 172.602 513.418 172.538 513.697 172.411C513.985 172.284 514.222 172.115 514.408 171.903C514.594 171.692 514.734 171.446 514.827 171.167C514.92 170.888 514.967 170.596 514.967 170.291C514.967 169.572 514.764 169.013 514.357 168.615C513.96 168.209 513.401 168.006 512.682 168.006C512.301 168.006 511.966 168.069 511.679 168.196C511.399 168.323 511.167 168.497 510.98 168.717C510.794 168.928 510.655 169.178 510.562 169.466C510.468 169.754 510.422 170.054 510.422 170.367ZM530.125 171.116C530.142 170.634 530.117 170.223 530.049 169.885C529.99 169.546 529.888 169.267 529.744 169.047C529.609 168.827 529.439 168.666 529.236 168.564C529.033 168.463 528.8 168.412 528.538 168.412C528.081 168.412 527.607 168.603 527.116 168.983C526.634 169.356 526.101 169.974 525.517 170.837V179H522.343V166.102H525.148L525.263 167.98C525.474 167.65 525.711 167.354 525.974 167.092C526.244 166.829 526.541 166.605 526.862 166.419C527.192 166.224 527.556 166.076 527.954 165.975C528.352 165.873 528.788 165.822 529.262 165.822C529.913 165.822 530.489 165.937 530.988 166.165C531.496 166.385 531.919 166.715 532.258 167.155C532.605 167.595 532.859 168.15 533.02 168.818C533.189 169.479 533.261 170.244 533.235 171.116H530.125ZM547.353 171.561C547.353 171.772 547.344 172.047 547.327 172.386C547.319 172.724 547.302 173.042 547.276 173.338H538.796C538.796 173.905 538.881 174.404 539.05 174.836C539.228 175.268 539.473 175.632 539.786 175.928C540.108 176.215 540.489 176.436 540.929 176.588C541.377 176.74 541.872 176.816 542.414 176.816C543.04 176.816 543.709 176.77 544.42 176.677C545.139 176.575 545.884 176.414 546.654 176.194V178.657C546.324 178.75 545.965 178.835 545.575 178.911C545.186 178.987 544.788 179.055 544.382 179.114C543.976 179.174 543.565 179.216 543.15 179.241C542.736 179.275 542.334 179.292 541.944 179.292C540.963 179.292 540.082 179.152 539.304 178.873C538.525 178.594 537.865 178.183 537.323 177.642C536.782 177.091 536.367 176.414 536.079 175.61C535.791 174.806 535.647 173.875 535.647 172.817C535.647 171.768 535.791 170.816 536.079 169.961C536.367 169.098 536.773 168.361 537.298 167.752C537.823 167.134 538.457 166.66 539.202 166.33C539.955 165.992 540.793 165.822 541.716 165.822C542.63 165.822 543.438 165.966 544.141 166.254C544.843 166.533 545.431 166.927 545.905 167.435C546.379 167.942 546.739 168.548 546.984 169.25C547.23 169.952 547.353 170.723 547.353 171.561ZM544.204 171.116C544.213 170.608 544.149 170.168 544.014 169.796C543.878 169.415 543.692 169.102 543.455 168.856C543.227 168.611 542.956 168.429 542.643 168.311C542.338 168.192 542.008 168.133 541.652 168.133C540.874 168.133 540.235 168.395 539.735 168.92C539.236 169.436 538.94 170.168 538.847 171.116H544.204ZM560.086 168.361C560.323 168.658 560.488 168.971 560.581 169.301C560.683 169.622 560.733 169.952 560.733 170.291C560.733 171.01 560.606 171.645 560.353 172.195C560.107 172.745 559.756 173.207 559.299 173.579C558.85 173.951 558.309 174.235 557.674 174.43C557.048 174.616 556.354 174.709 555.592 174.709C555.143 174.709 554.729 174.667 554.348 174.582C553.967 174.489 553.679 174.383 553.484 174.265C553.34 174.409 553.218 174.569 553.116 174.747C553.015 174.916 552.964 175.111 552.964 175.331C552.964 175.466 552.998 175.602 553.065 175.737C553.133 175.873 553.23 175.995 553.357 176.105C553.493 176.207 553.649 176.292 553.827 176.359C554.013 176.427 554.221 176.465 554.449 176.474L557.509 176.588C558.194 176.605 558.812 176.694 559.362 176.854C559.921 177.007 560.399 177.227 560.797 177.515C561.195 177.802 561.499 178.154 561.711 178.568C561.931 178.975 562.041 179.44 562.041 179.965C562.041 180.566 561.906 181.133 561.635 181.666C561.364 182.199 560.953 182.66 560.403 183.05C559.862 183.448 559.185 183.761 558.372 183.989C557.56 184.218 556.616 184.332 555.541 184.332C554.5 184.332 553.603 184.247 552.85 184.078C552.105 183.917 551.491 183.689 551.009 183.393C550.535 183.096 550.184 182.741 549.955 182.326C549.727 181.92 549.612 181.471 549.612 180.98C549.612 180.684 549.65 180.409 549.727 180.155C549.803 179.901 549.917 179.656 550.069 179.419C550.222 179.19 550.412 178.966 550.641 178.746C550.869 178.526 551.14 178.306 551.453 178.086C551.038 177.849 550.721 177.544 550.501 177.172C550.289 176.799 550.184 176.402 550.184 175.979C550.184 175.691 550.222 175.424 550.298 175.179C550.374 174.925 550.471 174.684 550.59 174.455C550.717 174.227 550.861 174.007 551.021 173.795C551.182 173.583 551.352 173.376 551.529 173.173C551.216 172.86 550.954 172.483 550.742 172.043C550.539 171.594 550.438 171.036 550.438 170.367C550.438 169.648 550.564 169.009 550.818 168.45C551.081 167.883 551.44 167.409 551.897 167.028C552.354 166.639 552.896 166.347 553.522 166.152C554.157 165.949 554.847 165.848 555.592 165.848C555.973 165.848 556.337 165.869 556.684 165.911C557.039 165.945 557.361 166.008 557.648 166.102H562.117V168.361H560.086ZM552.786 180.714C552.786 181.213 553.036 181.581 553.535 181.818C554.043 182.055 554.754 182.174 555.668 182.174C556.252 182.174 556.743 182.119 557.141 182.009C557.547 181.899 557.877 181.755 558.131 181.577C558.385 181.399 558.567 181.192 558.677 180.955C558.787 180.718 558.842 180.473 558.842 180.219C558.842 179.99 558.787 179.796 558.677 179.635C558.575 179.482 558.427 179.351 558.232 179.241C558.046 179.14 557.822 179.059 557.56 179C557.306 178.949 557.022 178.915 556.709 178.898L553.979 178.848C553.734 179.017 553.531 179.178 553.37 179.33C553.218 179.482 553.095 179.631 553.002 179.774C552.917 179.927 552.858 180.079 552.824 180.231C552.799 180.384 552.786 180.545 552.786 180.714ZM553.307 170.367C553.307 171.053 553.506 171.599 553.903 172.005C554.31 172.403 554.872 172.602 555.592 172.602C555.973 172.602 556.303 172.538 556.582 172.411C556.87 172.284 557.107 172.115 557.293 171.903C557.479 171.692 557.619 171.446 557.712 171.167C557.805 170.888 557.852 170.596 557.852 170.291C557.852 169.572 557.648 169.013 557.242 168.615C556.844 168.209 556.286 168.006 555.566 168.006C555.186 168.006 554.851 168.069 554.563 168.196C554.284 168.323 554.051 168.497 553.865 168.717C553.679 168.928 553.539 169.178 553.446 169.466C553.353 169.754 553.307 170.054 553.307 170.367ZM572.794 179L572.718 177.312C572.447 177.599 572.163 177.866 571.867 178.111C571.571 178.348 571.245 178.556 570.89 178.733C570.534 178.911 570.145 179.047 569.722 179.14C569.307 179.241 568.85 179.292 568.351 179.292C567.69 179.292 567.111 179.195 566.611 179C566.112 178.805 565.693 178.535 565.354 178.188C565.016 177.84 564.758 177.422 564.58 176.931C564.411 176.44 564.326 175.898 564.326 175.306C564.326 174.696 564.453 174.133 564.707 173.617C564.969 173.101 565.363 172.657 565.888 172.284C566.421 171.912 567.081 171.62 567.868 171.408C568.664 171.197 569.595 171.091 570.661 171.091H572.35V170.316C572.35 169.986 572.303 169.69 572.21 169.428C572.117 169.157 571.965 168.928 571.753 168.742C571.55 168.556 571.283 168.412 570.953 168.311C570.623 168.209 570.217 168.158 569.734 168.158C568.973 168.158 568.219 168.247 567.475 168.425C566.738 168.594 566.023 168.835 565.329 169.148V166.673C565.947 166.427 566.658 166.224 567.462 166.063C568.274 165.903 569.117 165.822 569.988 165.822C570.945 165.822 571.766 165.915 572.451 166.102C573.137 166.279 573.7 166.55 574.14 166.914C574.588 167.278 574.918 167.735 575.13 168.285C575.341 168.827 575.447 169.462 575.447 170.189V179H572.794ZM572.35 173.3H570.458C569.933 173.3 569.489 173.351 569.125 173.452C568.761 173.554 568.465 173.693 568.236 173.871C568.008 174.049 567.839 174.256 567.729 174.493C567.627 174.722 567.576 174.967 567.576 175.229C567.576 175.754 567.745 176.156 568.084 176.436C568.423 176.706 568.884 176.842 569.468 176.842C569.899 176.842 570.348 176.685 570.813 176.372C571.279 176.059 571.791 175.61 572.35 175.026V173.3ZM589.641 178.873C589.082 179 588.519 179.102 587.952 179.178C587.385 179.254 586.848 179.292 586.34 179.292C585.493 179.292 584.761 179.203 584.144 179.025C583.534 178.848 583.026 178.577 582.62 178.213C582.222 177.849 581.926 177.388 581.731 176.829C581.545 176.262 581.452 175.589 581.452 174.811V168.514H577.986V166.102H581.452V162.801L584.626 161.976V166.102H589.641V168.514H584.626V174.582C584.626 175.318 584.795 175.877 585.134 176.258C585.472 176.63 586.039 176.816 586.835 176.816C587.343 176.816 587.838 176.774 588.32 176.689C588.803 176.605 589.243 176.507 589.641 176.397V178.873ZM604.532 171.561C604.532 171.772 604.524 172.047 604.507 172.386C604.498 172.724 604.481 173.042 604.456 173.338H595.976C595.976 173.905 596.06 174.404 596.229 174.836C596.407 175.268 596.653 175.632 596.966 175.928C597.287 176.215 597.668 176.436 598.108 176.588C598.557 176.74 599.052 176.816 599.594 176.816C600.22 176.816 600.889 176.77 601.6 176.677C602.319 176.575 603.064 176.414 603.834 176.194V178.657C603.504 178.75 603.144 178.835 602.755 178.911C602.366 178.987 601.968 179.055 601.562 179.114C601.155 179.174 600.745 179.216 600.33 179.241C599.915 179.275 599.513 179.292 599.124 179.292C598.142 179.292 597.262 179.152 596.483 178.873C595.705 178.594 595.045 178.183 594.503 177.642C593.961 177.091 593.547 176.414 593.259 175.61C592.971 174.806 592.827 173.875 592.827 172.817C592.827 171.768 592.971 170.816 593.259 169.961C593.547 169.098 593.953 168.361 594.478 167.752C595.002 167.134 595.637 166.66 596.382 166.33C597.135 165.992 597.973 165.822 598.896 165.822C599.81 165.822 600.618 165.966 601.32 166.254C602.023 166.533 602.611 166.927 603.085 167.435C603.559 167.942 603.919 168.548 604.164 169.25C604.41 169.952 604.532 170.723 604.532 171.561ZM601.384 171.116C601.392 170.608 601.329 170.168 601.193 169.796C601.058 169.415 600.872 169.102 600.635 168.856C600.406 168.611 600.135 168.429 599.822 168.311C599.518 168.192 599.188 168.133 598.832 168.133C598.053 168.133 597.414 168.395 596.915 168.92C596.416 169.436 596.119 170.168 596.026 171.116H601.384ZM485.958 209V192.407H491.315C493.203 192.407 494.616 192.737 495.556 193.397C496.504 194.058 496.978 195.056 496.978 196.394C496.978 196.808 496.927 197.215 496.825 197.612C496.732 198.002 496.584 198.361 496.381 198.691C496.178 199.021 495.924 199.313 495.619 199.567C495.314 199.821 494.955 200.02 494.54 200.164C494.955 200.232 495.348 200.367 495.721 200.57C496.102 200.765 496.432 201.023 496.711 201.345C496.999 201.658 497.223 202.03 497.384 202.462C497.553 202.894 497.638 203.376 497.638 203.909C497.638 205.602 497.071 206.876 495.937 207.73C494.802 208.577 493.165 209 491.023 209H485.958ZM493.728 196.939C493.728 196.626 493.677 196.343 493.575 196.089C493.474 195.835 493.309 195.619 493.08 195.441C492.86 195.264 492.572 195.128 492.217 195.035C491.87 194.934 491.447 194.883 490.947 194.883H489.056V199.275H490.947C491.455 199.275 491.882 199.216 492.229 199.098C492.585 198.971 492.873 198.801 493.093 198.59C493.321 198.37 493.482 198.12 493.575 197.841C493.677 197.562 493.728 197.261 493.728 196.939ZM491.239 206.448C491.739 206.448 492.174 206.385 492.547 206.258C492.928 206.131 493.245 205.957 493.499 205.737C493.753 205.509 493.943 205.242 494.07 204.938C494.206 204.633 494.273 204.307 494.273 203.96C494.273 203.241 494.003 202.678 493.461 202.271C492.928 201.865 492.107 201.662 490.998 201.662H489.056V206.448H491.239ZM511.996 202.449C511.996 203.465 511.852 204.396 511.564 205.242C511.277 206.08 510.862 206.799 510.32 207.4C509.779 208.001 509.114 208.467 508.327 208.797C507.54 209.127 506.643 209.292 505.636 209.292C504.679 209.292 503.825 209.152 503.071 208.873C502.318 208.594 501.679 208.179 501.154 207.629C500.63 207.07 500.228 206.376 499.948 205.547C499.669 204.709 499.529 203.736 499.529 202.627C499.529 201.603 499.673 200.672 499.961 199.834C500.257 198.996 500.676 198.281 501.218 197.688C501.768 197.096 502.437 196.639 503.224 196.317C504.011 195.987 504.899 195.822 505.89 195.822C506.854 195.822 507.714 195.966 508.467 196.254C509.22 196.533 509.859 196.952 510.384 197.511C510.909 198.069 511.306 198.763 511.577 199.593C511.856 200.414 511.996 201.366 511.996 202.449ZM508.771 202.525C508.771 201.188 508.518 200.185 508.01 199.517C507.51 198.84 506.77 198.501 505.788 198.501C505.246 198.501 504.785 198.607 504.404 198.818C504.023 199.03 503.71 199.322 503.465 199.694C503.219 200.058 503.037 200.486 502.919 200.977C502.809 201.467 502.754 201.992 502.754 202.551C502.754 203.896 503.025 204.912 503.566 205.598C504.108 206.275 504.849 206.613 505.788 206.613C506.304 206.613 506.753 206.512 507.134 206.309C507.515 206.097 507.824 205.809 508.061 205.445C508.298 205.073 508.475 204.637 508.594 204.138C508.712 203.638 508.771 203.101 508.771 202.525ZM517.747 196.102V204.506C517.747 205.208 517.878 205.742 518.141 206.105C518.403 206.461 518.801 206.639 519.334 206.639C519.85 206.639 520.345 206.427 520.819 206.004C521.302 205.572 521.81 204.993 522.343 204.265V196.102H525.44V209H522.762L522.686 207.096C522.415 207.426 522.14 207.726 521.86 207.997C521.581 208.268 521.276 208.501 520.946 208.695C520.625 208.882 520.269 209.025 519.88 209.127C519.499 209.237 519.076 209.292 518.61 209.292C517.95 209.292 517.37 209.186 516.871 208.975C516.38 208.755 515.97 208.446 515.64 208.048C515.31 207.65 515.06 207.176 514.891 206.626C514.73 206.067 514.649 205.445 514.649 204.76V196.102H517.747ZM536.663 209V200.596C536.663 199.182 536.138 198.476 535.089 198.476C534.564 198.476 534.061 198.687 533.578 199.11C533.104 199.534 532.601 200.109 532.067 200.837V209H528.97V196.102H531.648L531.725 198.006C531.987 197.676 532.258 197.375 532.537 197.104C532.825 196.834 533.134 196.605 533.464 196.419C533.794 196.224 534.149 196.076 534.53 195.975C534.911 195.873 535.339 195.822 535.812 195.822C536.473 195.822 537.048 195.932 537.539 196.152C538.03 196.364 538.44 196.669 538.771 197.066C539.101 197.456 539.346 197.93 539.507 198.488C539.676 199.038 539.761 199.656 539.761 200.342V209H536.663ZM551.377 209L551.301 207.096C551.03 207.426 550.751 207.726 550.463 207.997C550.175 208.268 549.866 208.501 549.536 208.695C549.206 208.882 548.851 209.025 548.47 209.127C548.097 209.237 547.683 209.292 547.226 209.292C546.464 209.292 545.787 209.14 545.194 208.835C544.602 208.53 544.103 208.099 543.696 207.54C543.299 206.973 542.994 206.287 542.782 205.483C542.571 204.679 542.465 203.782 542.465 202.792C542.465 201.607 542.63 200.583 542.96 199.72C543.299 198.848 543.764 198.129 544.356 197.562C544.949 196.986 545.651 196.563 546.464 196.292C547.276 196.013 548.161 195.873 549.117 195.873C549.439 195.873 549.76 195.894 550.082 195.937C550.412 195.979 550.704 196.034 550.958 196.102V191.062H554.056V209H551.377ZM545.715 202.652C545.715 203.363 545.761 203.973 545.854 204.48C545.956 204.98 546.1 205.39 546.286 205.712C546.481 206.034 546.718 206.271 546.997 206.423C547.276 206.567 547.594 206.639 547.949 206.639C548.474 206.639 548.973 206.427 549.447 206.004C549.921 205.581 550.425 205.001 550.958 204.265V198.628C550.713 198.535 550.408 198.459 550.044 198.399C549.688 198.34 549.329 198.311 548.965 198.311C548.465 198.311 548.017 198.412 547.619 198.615C547.221 198.818 546.879 199.106 546.591 199.479C546.312 199.851 546.096 200.308 545.943 200.85C545.791 201.383 545.715 201.984 545.715 202.652ZM565.646 209L565.57 207.312C565.299 207.599 565.016 207.866 564.72 208.111C564.424 208.348 564.098 208.556 563.742 208.733C563.387 208.911 562.997 209.047 562.574 209.14C562.16 209.241 561.702 209.292 561.203 209.292C560.543 209.292 559.963 209.195 559.464 209C558.965 208.805 558.546 208.535 558.207 208.188C557.868 207.84 557.61 207.422 557.433 206.931C557.263 206.44 557.179 205.898 557.179 205.306C557.179 204.696 557.306 204.133 557.56 203.617C557.822 203.101 558.215 202.657 558.74 202.284C559.273 201.912 559.934 201.62 560.721 201.408C561.516 201.197 562.447 201.091 563.514 201.091H565.202V200.316C565.202 199.986 565.156 199.69 565.062 199.428C564.969 199.157 564.817 198.928 564.605 198.742C564.402 198.556 564.136 198.412 563.806 198.311C563.476 198.209 563.069 198.158 562.587 198.158C561.825 198.158 561.072 198.247 560.327 198.425C559.591 198.594 558.876 198.835 558.182 199.148V196.673C558.799 196.427 559.51 196.224 560.314 196.063C561.127 195.903 561.969 195.822 562.841 195.822C563.797 195.822 564.618 195.915 565.304 196.102C565.989 196.279 566.552 196.55 566.992 196.914C567.441 197.278 567.771 197.735 567.982 198.285C568.194 198.827 568.3 199.462 568.3 200.189V209H565.646ZM565.202 203.3H563.311C562.786 203.3 562.341 203.351 561.978 203.452C561.614 203.554 561.317 203.693 561.089 203.871C560.86 204.049 560.691 204.256 560.581 204.493C560.479 204.722 560.429 204.967 560.429 205.229C560.429 205.754 560.598 206.156 560.937 206.436C561.275 206.706 561.736 206.842 562.32 206.842C562.752 206.842 563.201 206.685 563.666 206.372C564.132 206.059 564.644 205.61 565.202 205.026V203.3ZM580.157 201.116C580.174 200.634 580.149 200.223 580.081 199.885C580.022 199.546 579.92 199.267 579.776 199.047C579.641 198.827 579.472 198.666 579.269 198.564C579.065 198.463 578.833 198.412 578.57 198.412C578.113 198.412 577.639 198.603 577.148 198.983C576.666 199.356 576.133 199.974 575.549 200.837V209H572.375V196.102H575.181L575.295 197.98C575.507 197.65 575.743 197.354 576.006 197.092C576.277 196.829 576.573 196.605 576.895 196.419C577.225 196.224 577.589 196.076 577.986 195.975C578.384 195.873 578.82 195.822 579.294 195.822C579.946 195.822 580.521 195.937 581.021 196.165C581.528 196.385 581.951 196.715 582.29 197.155C582.637 197.595 582.891 198.15 583.052 198.818C583.221 199.479 583.293 200.244 583.268 201.116H580.157ZM593.906 207.591C593.458 208.708 592.988 209.686 592.497 210.523C592.015 211.37 591.481 212.072 590.897 212.631C590.313 213.198 589.662 213.621 588.942 213.9C588.231 214.188 587.432 214.332 586.543 214.332C586.331 214.332 586.099 214.319 585.845 214.294C585.599 214.277 585.345 214.247 585.083 214.205V211.577C585.185 211.594 585.299 211.611 585.426 211.628C585.561 211.653 585.701 211.67 585.845 211.679C585.989 211.696 586.132 211.708 586.276 211.717C586.429 211.725 586.568 211.729 586.695 211.729C587.051 211.729 587.381 211.662 587.686 211.526C587.99 211.391 588.27 211.201 588.523 210.955C588.786 210.718 589.023 210.43 589.234 210.092C589.446 209.762 589.632 209.398 589.793 209L584.677 196.102H588.13L590.809 203.414L591.608 205.775L592.396 203.516L595.1 196.102H598.426L593.906 207.591Z" fill="black"/>
<circle cx="287" cy="132" r="8" fill="black"/>
<line x1="326.153" y1="191.006" x2="469.153" y2="202.006" stroke="black" stroke-width="4"/>
<circle cx="325" cy="193" r="8" fill="black"/>
<path d="M156.936 215V213.305H159.538V206.742L157.272 207.992L156.647 206.438L159.889 204.727H161.491V213.305H163.733V215H156.936Z" fill="black"/>
<path d="M185.936 198V196.305H188.538V189.742L186.272 190.992L185.647 189.438L188.889 187.727H190.491V196.305H192.733V198H185.936Z" fill="black"/>
<path d="M259.936 196V194.305H262.538V187.742L260.272 188.992L259.647 187.438L262.889 185.727H264.491V194.305H266.733V196H259.936Z" fill="black"/>
<path d="M235.936 214V212.305H238.538V205.742L236.272 206.992L235.647 205.438L238.889 203.727H240.491V212.305H242.733V214H235.936Z" fill="black"/>
<path d="M239.936 300V298.305H242.538V291.742L240.272 292.992L239.647 291.438L242.889 289.727H244.491V298.305H246.733V300H239.936Z" fill="black"/>
<path d="M235.936 384V382.305H238.538V375.742L236.272 376.992L235.647 375.438L238.889 373.727H240.491V382.305H242.733V384H235.936Z" fill="black"/>
<path d="M151.436 422V416.594C151.436 416.396 151.431 416.224 151.421 416.078C151.41 415.927 151.389 415.802 151.358 415.703C151.327 415.604 151.28 415.531 151.217 415.484C151.16 415.432 151.079 415.406 150.975 415.406C150.814 415.406 150.655 415.516 150.499 415.734C150.342 415.953 150.165 416.326 149.967 416.852V422H148.335V416.594C148.335 416.396 148.329 416.224 148.319 416.078C148.309 415.927 148.288 415.802 148.256 415.703C148.225 415.604 148.178 415.531 148.116 415.484C148.053 415.432 147.97 415.406 147.866 415.406C147.73 415.406 147.579 415.516 147.413 415.734C147.246 415.953 147.061 416.326 146.858 416.852V422H145.21V414.062H146.624L146.655 415.219C146.769 414.984 146.884 414.784 146.999 414.617C147.113 414.451 147.236 414.315 147.366 414.211C147.496 414.102 147.634 414.023 147.78 413.977C147.931 413.93 148.1 413.906 148.288 413.906C148.73 413.906 149.066 414.023 149.296 414.258C149.53 414.487 149.663 414.807 149.694 415.219C149.819 414.984 149.941 414.784 150.061 414.617C150.186 414.451 150.314 414.315 150.444 414.211C150.579 414.102 150.723 414.023 150.874 413.977C151.03 413.93 151.202 413.906 151.389 413.906C151.967 413.906 152.394 414.109 152.671 414.516C152.947 414.917 153.085 415.513 153.085 416.305V422H151.436Z" fill="black"/>
<path d="M236.436 405V399.594C236.436 399.396 236.431 399.224 236.421 399.078C236.41 398.927 236.389 398.802 236.358 398.703C236.327 398.604 236.28 398.531 236.217 398.484C236.16 398.432 236.079 398.406 235.975 398.406C235.814 398.406 235.655 398.516 235.499 398.734C235.342 398.953 235.165 399.326 234.967 399.852V405H233.335V399.594C233.335 399.396 233.329 399.224 233.319 399.078C233.309 398.927 233.288 398.802 233.256 398.703C233.225 398.604 233.178 398.531 233.116 398.484C233.053 398.432 232.97 398.406 232.866 398.406C232.73 398.406 232.579 398.516 232.413 398.734C232.246 398.953 232.061 399.326 231.858 399.852V405H230.21V397.062H231.624L231.655 398.219C231.769 397.984 231.884 397.784 231.999 397.617C232.113 397.451 232.236 397.315 232.366 397.211C232.496 397.102 232.634 397.023 232.78 396.977C232.931 396.93 233.1 396.906 233.288 396.906C233.73 396.906 234.066 397.023 234.296 397.258C234.53 397.487 234.663 397.807 234.694 398.219C234.819 397.984 234.941 397.784 235.061 397.617C235.186 397.451 235.314 397.315 235.444 397.211C235.579 397.102 235.723 397.023 235.874 396.977C236.03 396.93 236.202 396.906 236.389 396.906C236.967 396.906 237.394 397.109 237.671 397.516C237.947 397.917 238.085 398.513 238.085 399.305V405H236.436Z" fill="black"/>
<path d="M110.936 293V291.305H113.538V284.742L111.272 285.992L110.647 284.438L113.889 282.727H115.491V291.305H117.733V293H110.936Z" fill="black"/>
<path d="M299.936 210V208.305H302.538V201.742L300.272 202.992L299.647 201.438L302.889 199.727H304.491V208.305H306.733V210H299.936Z" fill="black"/>
</svg>
